<svg width="3000" height="3000" viewBox="0 0 3000 3000" fill="none" xmlns="http://www.w3.org/2000/svg">
<path d="M2999.72 449.397C3002.5 527.396 2984.59 595.96 2949.72 665.863C2881.37 802.885 2813.16 939.952 2745.22 1077.19L2206.78 2153.13L1954.63 2654.96C1926.53 2711.1 1855.81 2889.31 1805.82 2906.94C1786.84 2905.25 1793.41 2906.51 1776.2 2894.29C1769.96 2881.39 1767.31 2880.76 1773.84 2864C1791.86 2817.81 1816.99 2770.33 1839.29 2726.03L1961.28 2483.9L2459.78 1485.7C2503.4 1398.65 2547.52 1311.89 2592.13 1225.34C2674.83 1063.54 2688.38 1038.84 2700.97 854.866C2558.19 872.02 2497.84 858.634 2374.72 785.161C2169 854.634 2047.8 954.367 1878.71 1081.73L1442.94 1409.33L131.309 2392.17C117.77 2402.99 104.135 2413.66 90.403 2424.24C67.3388 2442.07 47.8522 2459.99 18.2121 2456.17C-35.121 2415.5 42.6305 2373.42 73.5277 2350.43L1862.19 1008.68C2030.98 883.092 2127.27 813.465 2264.62 650.168C2224.6 521.512 2213.71 480.798 2244.27 350.219C2013.97 338.746 1877.78 410.233 1666.8 486.43L803.339 800.857L559.902 889.024C518.193 904.261 406.242 953.004 366.786 942.792C353.151 928.898 352.813 916.3 358.857 899.078C399.183 863.382 988.703 660.129 1080.15 627.25L1829.2 353.534C1976.21 299.191 2123.52 245.641 2271.1 192.883C2336.77 169.087 2405.3 146.183 2470.07 120.995C2714.68 25.861 2974.73 183.149 2999.72 449.397Z" fill="black"/>
<path d="M2473.02 874.161C2455.88 916.851 1865.01 1607.52 1788.58 1695.49C1782.5 1702.5 1768.18 1708.68 1757.91 1706.99C1741.09 1704.24 1733.86 1694.33 1723.87 1681.63C1749.14 1631.44 1872.76 1492.69 1915.85 1441.78C1992.17 1351.2 2067.98 1260.14 2143.28 1168.69C2189.28 1113.58 2248.58 1046.44 2289.35 989.478C2315.82 952.498 2355.24 878.533 2378.95 837.074C2420 845.412 2437.23 853.263 2473.02 874.161Z" fill="black"/>
</svg>
